/* XPM */
static char *_68c561ee15d46c0d910e2b9f686ea80LdfsTsAoPKLlS7zL[] = {
/* columns rows colors chars-per-pixel */
"64 64 2 1 ",
"  c None",
". c #34D400",
/* pixels */
"                                                                ",
"                                                                ",
"                                                                ",
"                                                                ",
"                                                                ",
"                                                                ",
"                                                                ",
"                                                                ",
"                                                                ",
"                                                                ",
"                                                                ",
"                                                                ",
"                               ..                               ",
"                              ....                              ",
"                            ........                            ",
"                           ..........                           ",
"                         ..............                         ",
"                       ........  ........                       ",
"                     ........      ........                     ",
"                    ........        ........                    ",
"                  ........            ........                  ",
"                ........                ........                ",
"              ........                    ........              ",
"              .......          ..          .......              ",
"              ......          ....           .....              ",
"              ......        ........         .....              ",
"              ......      ............       .....              ",
"              ......     ..............      .....              ",
"              ......     ......  ........      ...              ",
"              .......      ..      ........                     ",
"              ........              .........                   ",
"                ........              ........                  ",
"                  ........              ........                ",
"                   .........              ........              ",
"                     ........      ..      .......              ",
"              ...      ........  ......     ......              ",
"              .....      ..............     ......              ",
"              .....       ............      ......              ",
"              .....         ........        ......              ",
"              .....           ....          ......              ",
"              .......          ..          .......              ",
"              ........                    ........              ",
"                ........                ........                ",
"                  ........            ........                  ",
"                    ........        ........                    ",
"                     ........      ........                     ",
"                       ........  ........                       ",
"                         ..............                         ",
"                           ..........                           ",
"                            ........                            ",
"                              ....                              ",
"                               ..                               ",
"                                                                ",
"                                                                ",
"                                                                ",
"                                                                ",
"                                                                ",
"                                                                ",
"                                                                ",
"                                                                ",
"                                                                ",
"                                                                ",
"                                                                ",
"                                                                "
};
