/* XPM */
static char *f187501252cc4d4fca3f2fee553e5889ITxtHpSE4qiZLWq7[] = {
/* columns rows colors chars-per-pixel */
"32 32 2 1 ",
"  c None",
". c #34D400",
/* pixels */
"                                ",
"                                ",
"                                ",
"               ..               ",
"             ......             ",
"           ..........           ",
"          .....  .....          ",
"        .....      .....        ",
"      ......        ......      ",
"     .....            .....     ",
"    ....       ..       ....    ",
"    ....      ....      ....    ",
"    ....    ........    ....    ",
"    ....   ....  .....    ..    ",
"    .....    .    .....         ",
"     .....          .....       ",
"       .....          .....     ",
"         .....    .    .....    ",
"    ..    .....  ....   ....    ",
"    ....    ........    ....    ",
"    ....      ....      ....    ",
"    ....       ..       ....    ",
"     .....            .....     ",
"      ......        ......      ",
"        .....      .....        ",
"          .....  .....          ",
"           ..........           ",
"             ......             ",
"               ..               ",
"                                ",
"                                ",
"                                "
};
