/* XPM */
static char *_28561234e884bc0b8d608a84a67d6d2YJ1Em0NnLxoXyZ2x[] = {
/* columns rows colors chars-per-pixel */
"128 128 2 1 ",
"  c None",
". c #34D400",
/* pixels */
"                                                                                                                                ",
"                                                                                                                                ",
"                                                                                                                                ",
"                                                                                                                                ",
"                                                                                                                                ",
"                                                                                                                                ",
"                                                                                                                                ",
"                                                                                                                                ",
"                                                                                                                                ",
"                                                                                                                                ",
"                                                                                                                                ",
"                                                               .                                                                ",
"                                                              ....                                                              ",
"                                                             ......                                                             ",
"                                                           ..........                                                           ",
"                                                         ..............                                                         ",
"                                                       .................                                                        ",
"                                                      ....................                                                      ",
"                                                    ........................                                                    ",
"                                                  ............................                                                  ",
"                                                ...............................                                                 ",
"                                               ..................................                                               ",
"                                             ......................................                                             ",
"                                           ..........................................                                           ",
"                                         ......................  .....................                                          ",
"                                        ......................    ......................                                        ",
"                                      ......................        ......................                                      ",
"                                    ......................            ......................                                    ",
"                                   .....................                .....................                                   ",
"                                 ......................                  ......................                                 ",
"                               ......................                      ......................                               ",
"                             ......................                          ......................                             ",
"                            .....................                              .....................                            ",
"                          ......................                                 .....................                          ",
"                        ......................                                    ......................                        ",
"                      ......................                                        ......................                      ",
"                     .....................                                            .....................                     ",
"                   ......................                                               .....................                   ",
"                   ....................                                                  ....................                   ",
"                   ..................                                                      ..................                   ",
"                   ................                                                          ................                   ",
"                   ...............                             ..                              ..............                   ",
"                   .............                             ......                             .............                   ",
"                   ............                            ..........                            ............                   ",
"                   ............                          ..............                           ...........                   ",
"                   ............                         ................                         ............                   ",
"                   ............                       ....................                       ............                   ",
"                   ............                     ........................                     ............                   ",
"                   ............                   ............................                   ............                   ",
"                   ............                  ..............................                  ............                   ",
"                   ............                ..................................                ............                   ",
"                   ............              ......................................               ...........                   ",
"                   ............            .........................................                .........                   ",
"                   ............            ....................  .....................                .......                   ",
"                   ............              .................    ......................               ......                   ",
"                   ............               ..............        ......................               ....                   ",
"                   .............                ..........            .....................                ..                   ",
"                   ...............                ......                .....................                                   ",
"                   .................                ...                  ......................                                 ",
"                   ..................                                      ......................                               ",
"                   ....................                                      .....................                              ",
"                   ......................                                      .....................                            ",
"                     ......................                                     ......................                          ",
"                       .....................                                      ......................                        ",
"                        ......................                                      .....................                       ",
"                          ......................                                     ......................                     ",
"                            .....................                                      ......................                   ",
"                              .....................                                      ....................                   ",
"                               ......................                                      ..................                   ",
"                                 ......................                   ..                .................                   ",
"                                   .....................                ......                ...............                   ",
"                   ..                .....................            ..........                .............                   ",
"                   ....               ......................        ..............               ............                   ",
"                   ......               ......................    .................              ............                   ",
"                   .......                .....................  ....................            ............                   ",
"                   .........                .........................................            ............                   ",
"                   ...........               ......................................              ............                   ",
"                   ............                ..................................                ............                   ",
"                   ............                  ..............................                  ............                   ",
"                   ............                   ............................                   ............                   ",
"                   ............                     ........................                     ............                   ",
"                   ............                       ....................                       ............                   ",
"                   ............                         ................                         ............                   ",
"                   ...........                           ..............                          ............                   ",
"                   ............                            ..........                            ............                   ",
"                   .............                             ......                             .............                   ",
"                   ..............                              ..                             ...............                   ",
"                   ................                                                          ................                   ",
"                   ..................                                                      ..................                   ",
"                   ....................                                                  ....................                   ",
"                   .....................                                               ......................                   ",
"                     .....................                                            .....................                     ",
"                      ......................                                        ......................                      ",
"                        ......................                                    ......................                        ",
"                          .....................                                 ......................                          ",
"                            .....................                              .....................                            ",
"                             ......................                          ......................                             ",
"                               ......................                      ......................                               ",
"                                 ......................                  ......................                                 ",
"                                   .....................                .....................                                   ",
"                                    ......................            ......................                                    ",
"                                      ......................        ......................                                      ",
"                                        ......................    ......................                                        ",
"                                          .....................  ......................                                         ",
"                                           ..........................................                                           ",
"                                             ......................................                                             ",
"                                               ..................................                                               ",
"                                                 ...............................                                                ",
"                                                  ............................                                                  ",
"                                                    ........................                                                    ",
"                                                      ....................                                                      ",
"                                                       ..................                                                       ",
"                                                         ..............                                                         ",
"                                                           ..........                                                           ",
"                                                             ......                                                             ",
"                                                              ....                                                              ",
"                                                                .                                                               ",
"                                                                                                                                ",
"                                                                                                                                ",
"                                                                                                                                ",
"                                                                                                                                ",
"                                                                                                                                ",
"                                                                                                                                ",
"                                                                                                                                ",
"                                                                                                                                ",
"                                                                                                                                ",
"                                                                                                                                ",
"                                                                                                                                "
};
