/* XPM */
static char *_b95f439531b4cb4887aab4f6bb667eaBlIvXDccMEYcMbtt[] = {
/* columns rows colors chars-per-pixel */
"16 16 2 1 ",
"  c None",
". c #34D400",
/* pixels */
"                ",
"                ",
"      ....      ",
"    ...  ...    ",
"   ..      ..   ",
"  ..   ..   ..  ",
"  ..  .....  .  ",
"  ...     ..    ",
"    ..     ...  ",
"  .  .....  ..  ",
"  ..   ..   ..  ",
"   ..      ..   ",
"    ...  ...    ",
"      ....      ",
"                ",
"                "
};
